<svg width="19px" height="19px" viewBox="0 0 19 19" version="1.1" xmlns="http://www.w3.org/2000/svg" xmlns:xlink="http://www.w3.org/1999/xlink">
    <g id="Page-1" stroke="none" stroke-width="1" fill="none" fill-rule="evenodd">
        <g id="iPhone-8-(8)" transform="translate(-339.000000, -16.000000)" fill="#CDCDCD">
            <path d="M349.794589,25.2469654 L357.198677,32.6510532 C357.58948,33.0418563 357.593104,33.6718495 357.204927,34.0600261 L357.060026,34.2049269 C356.672675,34.592278 356.035045,34.5826687 355.651053,34.1986767 L348.246965,26.7945889 L340.842878,34.1986767 C340.452075,34.5894797 339.822081,34.5931035 339.433905,34.2049269 L339.289004,34.0600261 C338.901653,33.6726749 338.911262,33.0350453 339.295254,32.6510532 L346.699342,25.2469654 L339.295254,17.8428777 C338.904451,17.4520746 338.900827,16.8220814 339.289004,16.4339048 L339.433905,16.289004 C339.821256,15.9016528 340.458886,15.9112621 340.842878,16.2952542 L348.246965,23.699342 L355.651053,16.2952542 C356.041856,15.9044512 356.671849,15.9008274 357.060026,16.289004 L357.204927,16.4339048 C357.592278,16.821256 357.582669,17.4588856 357.198677,17.8428777 L349.794589,25.2469654 Z" id="Combined-Shape"></path>
        </g>
    </g>
</svg>